<svg width="87" height="87" viewBox="0 0 87 87" fill="none" xmlns="http://www.w3.org/2000/svg">
  <path d="M73.6962 64.0066C74.095 62.6799 74.3125 61.2697 74.3125 59.8125V27.1875C74.3125 23.3419 72.7848 19.6537 70.0655 16.9345C67.3463 14.2152 63.6581 12.6875 59.8125 12.6875H27.1875C23.3419 12.6875 19.6537 14.2152 16.9345 16.9345C14.2152 19.6537 12.6875 23.3419 12.6875 27.1875V60.0662C12.754 63.8677 14.311 67.491 17.0231 70.1556C19.7352 72.8203 23.3854 74.3131 27.1875 74.3125H59.8125L60.2366 74.3052M73.6962 64.0066L73.3772 63.6296L64.438 52.8416C63.7597 52.0233 62.9098 51.3641 61.9485 50.9108C60.9871 50.4574 59.9379 50.221 58.875 50.2182C57.8121 50.2154 56.7616 50.4464 55.7979 50.8947C54.8342 51.3431 53.9809 51.9978 53.2984 52.8126L48.5424 58.4894L47.7666 59.4355M73.6962 64.0066C72.8169 66.9186 71.044 69.4767 68.6285 71.3256C66.213 73.1745 63.2772 74.2169 60.2366 74.3052M47.7666 59.4355L59.8995 73.921L60.2366 74.3052M47.7666 59.4355L36.0687 45.4684C35.3883 44.6562 34.538 44.0031 33.5779 43.555C32.6178 43.1069 31.5712 42.8746 30.5116 42.8746C29.4521 42.8746 28.4054 43.1069 27.4453 43.555C26.4852 44.0031 25.635 44.6562 24.9545 45.4684L13.3327 59.3412L12.6911 60.0699" stroke="#D2E0FF" stroke-width="6.3125" stroke-linecap="round" stroke-linejoin="round"/>
  <path d="M54.705 37.7326C57.7081 37.7326 60.1425 35.2982 60.1425 32.2951C60.1425 29.2921 57.7081 26.8576 54.705 26.8576C51.702 26.8576 49.2675 29.2921 49.2675 32.2951C49.2675 35.2982 51.702 37.7326 54.705 37.7326Z" fill="#D2E0FF"/>
</svg>

